<svg width="186" height="155" viewBox="0 0 186 155" fill="none" xmlns="http://www.w3.org/2000/svg">
<circle cx="90" cy="80" r="74" stroke="#00C2CB" stroke-width="2" stroke-linecap="round" stroke-linejoin="round" stroke-dasharray="1 8"/>
<rect width="186" height="97" fill="#293039"/>
<path d="M81.6808 73.8626L91.2592 113.576C91.7783 115.726 94.7913 115.836 95.4679 113.733L104.968 84.2081L106.677 90.3214C106.805 90.7811 107.081 91.1861 107.461 91.4747C107.841 91.7632 108.305 91.9195 108.783 91.9197H118.973C119.553 91.9197 120.11 91.6893 120.52 91.279C120.93 90.8688 121.161 90.3124 121.161 89.7322C121.161 89.1521 120.93 88.5957 120.52 88.1854C120.11 87.7752 119.553 87.5447 118.973 87.5447H110.442L107.219 76.0239C106.636 73.9326 103.696 73.8772 103.031 75.9422L93.6858 104.983L83.9092 64.4243C83.3783 62.2164 80.2488 62.1814 79.6683 64.3776L73.5375 87.5447H65.0208C64.4407 87.5447 63.8843 87.7752 63.474 88.1854C63.0638 88.5957 62.8333 89.1521 62.8333 89.7322C62.8333 90.3124 63.0638 90.8688 63.474 91.279C63.8843 91.6893 64.4407 91.9197 65.0208 91.9197H75.2175C75.7001 91.9197 76.1692 91.7601 76.5517 91.4657C76.9342 91.1714 77.2085 90.7588 77.3321 90.2922L81.6808 73.8626Z" fill="#C3EDEF"/>
<path d="M46.121 29.0842L44.1709 25.3813C43.6211 24.3372 43.4967 23.4251 43.7979 22.6449C44.1032 21.8512 44.7115 21.2143 45.6229 20.7344C46.5608 20.2405 47.4429 20.0698 48.2691 20.2223C49.1043 20.3702 49.7268 20.8335 50.1369 21.6121C50.3046 21.9307 50.348 22.1847 50.267 22.3743C50.1949 22.5592 50.0084 22.7309 49.7076 22.8893C49.1413 23.1875 48.7582 23.1576 48.5583 22.7995C48.3267 22.4241 48.0507 22.1683 47.7303 22.0319C47.4051 21.8867 46.9904 21.9469 46.4861 22.2125C45.557 22.7017 45.3604 23.4551 45.8963 24.4726L47.8464 28.1755C48.3822 29.1931 49.1102 29.4595 50.0304 28.9749C50.4728 28.7419 50.7459 28.4342 50.8497 28.0518C50.9623 27.6648 50.8858 27.2191 50.6202 26.7147L50.2078 25.9317L49.1328 26.4978C48.9647 26.5864 48.797 26.5899 48.6298 26.5084C48.4714 26.4223 48.3433 26.2863 48.2454 26.1005C48.1523 25.9236 48.1194 25.7431 48.1468 25.5591C48.1696 25.3663 48.2606 25.228 48.4199 25.1441L50.6761 23.9559C50.8442 23.8673 51.0072 23.8549 51.1651 23.9187C51.3184 23.9736 51.4346 24.0763 51.5138 24.2267L52.3456 25.8061C52.9001 26.859 53.0223 27.7779 52.7123 28.5628C52.4023 29.3476 51.774 29.9893 50.8272 30.4879C49.8805 30.9865 48.9959 31.1416 48.1733 30.9532C47.3596 30.7601 46.6755 30.1371 46.121 29.0842Z" fill="#00C2CB"/>
<path d="M59.9851 25.5267L56.9123 16.2893C56.8523 16.1091 56.8856 15.9399 57.0122 15.7819C57.1388 15.6238 57.3112 15.5085 57.5295 15.4359L62.5965 13.7504C62.7863 13.6873 62.9554 13.7206 63.104 13.8503C63.262 13.9769 63.3757 14.1446 63.4452 14.3533C63.5209 14.5811 63.5335 14.7929 63.4827 14.989C63.432 15.185 63.3165 15.313 63.1362 15.373L59.1082 16.7129L60.0552 19.5595L62.2186 18.8398C62.3989 18.7799 62.5665 18.8084 62.7214 18.9255C62.8731 19.0331 62.9821 19.1866 63.0484 19.3858C63.1083 19.5661 63.1114 19.7495 63.0575 19.9361C63.01 20.11 62.8913 20.2285 62.7015 20.2916L60.5381 21.0113L61.4897 23.8722L65.5177 22.5323C65.698 22.4723 65.8672 22.5056 66.0252 22.6322C66.1833 22.7588 66.3002 22.9359 66.3759 23.1637C66.4453 23.3724 66.4547 23.5748 66.404 23.7708C66.3628 23.9637 66.2473 24.0917 66.0575 24.1548L60.9905 25.8404C60.7722 25.913 60.5651 25.9239 60.3691 25.8732C60.173 25.8225 60.045 25.707 59.9851 25.5267Z" fill="#00C2CB"/>
<path d="M71.5956 20.97C71.5582 20.7431 71.6046 20.5023 71.7348 20.2477C71.8733 19.9816 72.0511 19.8306 72.2682 19.7948C72.3965 19.7736 72.5493 19.8092 72.7267 19.9015C72.914 19.9923 73.0938 20.0994 73.2663 20.223C73.4469 20.335 73.6901 20.4267 73.9958 20.4978C74.3014 20.569 74.6269 20.5761 74.9723 20.5191C75.4458 20.4409 75.8226 20.2672 76.1025 19.998C76.3824 19.7289 76.4873 19.3821 76.4173 18.9579C76.3684 18.6619 76.2365 18.4151 76.0214 18.2175C75.8146 18.0084 75.5559 17.8534 75.2453 17.7527C74.943 17.6404 74.6127 17.5429 74.2545 17.4601C73.8946 17.3675 73.5273 17.2609 73.1527 17.1403C72.7879 17.0181 72.4445 16.8721 72.1226 16.7022C71.8088 16.5209 71.5331 16.2624 71.2952 15.9266C71.0656 15.5794 70.9117 15.169 70.8335 14.6954C70.7472 14.1724 70.7751 13.6966 70.9171 13.2677C71.0674 12.8273 71.3022 12.4693 71.6216 12.1936C71.9393 11.9081 72.2923 11.6826 72.6805 11.5171C73.0671 11.3418 73.4874 11.2167 73.9412 11.1418C74.1978 11.0994 74.4724 11.0744 74.765 11.0666C75.056 11.049 75.3659 11.0536 75.6947 11.0804C76.0333 11.1056 76.3151 11.1857 76.5401 11.3209C76.775 11.4544 76.9112 11.6347 76.9486 11.8616C76.9845 12.0786 76.9529 12.317 76.8538 12.5766C76.7531 12.8263 76.5844 12.9707 76.3476 13.0098C76.2588 13.0245 76.0016 12.9706 75.576 12.8483C75.1504 12.726 74.6959 12.7047 74.2124 12.7845C73.6796 12.8725 73.2823 13.0445 73.0205 13.3006C72.767 13.5451 72.6695 13.845 72.7282 14.2002C72.7754 14.4863 72.9353 14.7184 73.2079 14.8963C73.4789 15.0644 73.7985 15.1891 74.1666 15.2702C74.543 15.3398 74.9505 15.4449 75.3893 15.5853C75.8362 15.7142 76.2519 15.8686 76.6363 16.0483C77.0306 16.2265 77.3836 16.523 77.6953 16.9377C78.0054 17.3427 78.2101 17.846 78.3095 18.4479C78.4789 19.474 78.2844 20.322 77.726 20.9919C77.1759 21.6503 76.373 22.0666 75.3173 22.2409C74.38 22.3956 73.5441 22.3359 72.8097 22.0619C72.0752 21.7878 71.6705 21.4239 71.5956 20.97Z" fill="#00C2CB"/>
<path d="M85.031 20.385V10.635C85.031 10.475 85.096 10.335 85.226 10.215C85.366 10.095 85.546 10.035 85.766 10.035H88.781C89.811 10.035 90.636 10.31 91.256 10.86C91.876 11.4 92.186 12.25 92.186 13.41V13.5C92.186 14.67 91.861 15.53 91.211 16.08C90.571 16.63 89.721 16.905 88.661 16.905H86.981V20.385C86.981 20.575 86.881 20.725 86.681 20.835C86.491 20.945 86.266 21 86.006 21C85.736 21 85.506 20.945 85.316 20.835C85.126 20.725 85.031 20.575 85.031 20.385ZM86.981 15.375H88.661C89.161 15.375 89.546 15.23 89.816 14.94C90.096 14.65 90.236 14.22 90.236 13.65V13.47C90.236 12.9 90.096 12.47 89.816 12.18C89.546 11.89 89.161 11.745 88.661 11.745H86.981V15.375Z" fill="#00C2CB"/>
<path d="M98.8354 20.9674L100.423 11.3476C100.456 11.1503 100.574 11.0178 100.778 10.95C100.982 10.8823 101.217 10.8705 101.483 10.9144C101.749 10.9584 101.968 11.0452 102.139 11.1748C102.311 11.3044 102.38 11.4679 102.347 11.6652L100.938 20.2047L104.549 20.8007C104.726 20.8301 104.851 20.9367 104.922 21.1207C105.003 21.3064 105.024 21.5127 104.987 21.7396C104.949 21.9665 104.863 22.1549 104.726 22.3047C104.6 22.4562 104.448 22.5172 104.27 22.4879L99.5789 21.7135C99.3519 21.676 99.1635 21.5892 99.0137 21.453C98.8639 21.3167 98.8045 21.1549 98.8354 20.9674Z" fill="#00C2CB"/>
<path d="M110.732 23.1178C110.739 23.0989 110.764 23.0547 110.809 22.9854L116.583 14.9813C116.707 14.8018 116.896 14.6969 117.149 14.6666C117.415 14.6301 117.69 14.6601 117.974 14.7565C118.258 14.8529 118.494 14.9965 118.683 15.1873C118.875 15.3685 118.965 15.5683 118.955 15.7864L118.664 25.6513C118.657 25.7335 118.65 25.784 118.644 25.803C118.573 26.0113 118.384 26.1478 118.077 26.2126C117.77 26.2773 117.484 26.2647 117.219 26.1747C116.869 26.0558 116.702 25.862 116.719 25.5933L116.821 23.5209L113.568 22.417L112.387 24.1229C112.237 24.3466 111.987 24.399 111.637 24.2801C111.362 24.1869 111.121 24.0259 110.914 23.7971C110.719 23.562 110.658 23.3356 110.732 23.1178ZM114.443 21.0983L116.915 21.9371L117.159 17.157L114.443 21.0983Z" fill="#00C2CB"/>
<path d="M128.112 19.8362C128.221 19.6333 128.359 19.4805 128.527 19.3777C128.709 19.2708 128.888 19.2644 129.065 19.3587L134.661 22.3492C134.837 22.4435 134.927 22.5936 134.93 22.7995C134.947 23.0012 134.901 23.2036 134.793 23.4064C134.68 23.6181 134.532 23.7774 134.351 23.8843C134.173 23.9824 134.001 23.9866 133.834 23.8971L131.902 22.8649L127.851 30.4454C127.761 30.6129 127.603 30.6981 127.374 30.7008C127.155 30.7083 126.931 30.6508 126.701 30.5282C126.463 30.401 126.286 30.2441 126.17 30.0575C126.055 29.8709 126.042 29.6939 126.131 29.5263L130.182 21.9458L128.237 20.9066C128.07 20.817 127.978 20.6713 127.961 20.4696C127.944 20.2678 127.994 20.0566 128.112 19.8362Z" fill="#00C2CB"/>
</svg>
